<svg width="474" height="394" viewBox="0 0 474 394" fill="none" xmlns="http://www.w3.org/2000/svg">
<path d="M371.402 341.65C397.066 329.278 404.718 304.148 408.887 291.709C408.609 287.794 408.244 288.329 408.078 286.748C407.871 284.772 403.301 279.819 405.71 271.654C408.119 263.488 406.46 262.252 421.653 245.989C436.846 229.726 448.776 208.861 450.749 183.068C452.721 157.275 440.322 135.878 425.22 119.066C410.118 102.255 383.531 95.0177 337.235 124.749C290.939 154.481 274.218 81.5427 238.337 81.7567C202.457 81.9706 181.522 125.163 169.346 141.444C157.171 157.725 131.231 239.679 129.836 288.898C128.442 338.116 161.862 330.578 179.504 323.331C197.146 316.084 207.661 271.342 222.709 249.844C237.757 228.345 267.645 249.119 274.14 277.971C280.635 306.824 280.648 332.358 298.605 342.366C316.563 352.374 339.321 357.116 371.402 341.65Z" stroke="#807F7F" stroke-width="0.5"/>
<path d="M367.737 340.059C393.402 327.686 401.054 302.556 405.222 290.117C404.945 286.202 404.58 286.737 404.414 285.156C404.207 283.18 399.637 278.228 402.046 270.062C404.455 261.896 402.796 260.661 417.989 244.397C433.182 228.134 445.112 207.269 447.085 181.476C449.057 155.684 436.658 134.287 421.556 117.475C406.453 100.663 379.867 93.4259 333.571 123.158C287.275 152.889 270.554 79.9509 234.673 80.1649C198.793 80.3788 177.858 123.571 165.682 139.852C153.507 156.133 127.567 238.087 126.172 287.306C124.778 336.525 158.198 328.986 175.84 321.739C193.482 314.492 203.997 269.75 219.045 248.252C234.093 226.753 263.981 247.527 270.476 276.379C276.971 305.232 276.984 330.766 294.941 340.774C312.899 350.782 335.657 355.525 367.737 340.059Z" stroke="#807F7F" stroke-width="0.5"/>
<path d="M364.075 338.467C389.74 326.094 397.392 300.965 401.56 288.525C401.283 284.61 400.918 285.145 400.752 283.564C400.545 281.588 395.975 276.636 398.384 268.47C400.793 260.304 399.134 259.069 414.327 242.806C429.52 226.543 441.45 205.677 443.422 179.885C445.395 154.092 432.996 132.695 417.893 115.883C402.791 99.071 376.205 91.8341 329.909 121.566C283.613 151.298 266.891 78.3591 231.011 78.5731C195.131 78.7871 174.196 121.979 162.02 138.26C149.845 154.541 123.905 236.495 122.51 285.714C121.116 334.933 154.536 327.395 172.178 320.147C189.82 312.9 200.335 268.158 215.383 246.66C230.431 225.162 260.319 245.935 266.814 274.788C273.309 303.64 273.322 329.174 291.279 339.182C309.236 349.19 331.995 353.933 364.075 338.467Z" stroke="#807F7F" stroke-width="0.5"/>
<path d="M360.411 336.875C386.076 324.502 393.728 299.373 397.896 286.934C397.619 283.018 397.254 283.553 397.088 281.973C396.88 279.996 392.311 275.044 394.72 266.878C397.129 258.712 395.47 257.477 410.663 241.214C425.856 224.951 437.786 204.085 439.758 178.293C441.731 152.5 429.332 131.103 414.229 114.291C399.127 97.4792 372.541 90.2423 326.245 119.974C279.949 149.706 263.227 76.7673 227.347 76.9813C191.466 77.1953 170.532 120.388 158.356 136.668C146.181 152.949 120.241 234.904 118.846 284.122C117.452 333.341 150.872 325.803 168.514 318.556C186.156 311.308 196.671 266.567 211.718 245.068C226.766 223.57 256.655 244.344 263.15 273.196C269.645 302.048 269.658 327.582 287.615 337.59C305.572 347.599 328.331 352.341 360.411 336.875Z" stroke="#807F7F" stroke-width="0.5"/>
<path d="M356.745 335.283C382.409 322.91 390.062 297.781 394.23 285.342C393.953 281.427 393.588 281.962 393.422 280.381C393.214 278.405 388.645 273.452 391.054 265.286C393.463 257.12 391.804 255.885 406.997 239.622C422.19 223.359 434.12 202.494 436.092 176.701C438.065 150.908 425.666 129.511 410.563 112.699C395.461 95.8874 368.875 88.6505 322.579 118.382C276.283 148.114 259.561 75.1755 223.681 75.3895C187.8 75.6035 166.866 118.796 154.69 135.077C142.515 151.357 116.575 233.312 115.18 282.531C113.786 331.749 147.206 324.211 164.848 316.964C182.49 309.717 193.005 264.975 208.052 243.476C223.1 221.978 252.989 242.752 259.484 271.604C265.979 300.456 265.992 325.991 283.949 335.999C301.906 346.007 324.665 350.749 356.745 335.283Z" stroke="#807F7F" stroke-width="0.5"/>
<path d="M353.083 333.691C378.747 321.319 386.4 296.189 390.568 283.75C390.291 279.835 389.926 280.37 389.76 278.789C389.552 276.813 384.983 271.86 387.392 263.695C389.801 255.529 388.142 254.293 403.335 238.03C418.528 221.767 430.458 200.902 432.43 175.109C434.403 149.316 422.003 127.919 406.901 111.107C391.799 94.2956 365.212 87.0587 318.917 116.79C272.621 146.522 255.899 73.5837 220.019 73.7977C184.138 74.0117 163.204 117.204 151.028 133.485C138.852 149.766 112.912 231.72 111.518 280.939C110.123 330.158 143.544 322.619 161.186 315.372C178.828 308.125 189.342 263.383 204.39 241.885C219.438 220.386 249.327 241.16 255.822 270.012C262.317 298.865 262.33 324.399 280.287 334.407C298.244 344.415 321.003 349.158 353.083 333.691Z" stroke="#807F7F" stroke-width="0.5"/>
<path d="M349.419 332.099C375.084 319.727 382.736 294.597 386.904 282.158C386.627 278.243 386.262 278.778 386.096 277.197C385.889 275.221 381.319 270.268 383.728 262.103C386.137 253.937 384.478 252.701 399.671 236.438C414.864 220.175 426.794 199.31 428.766 173.517C430.739 147.724 418.34 126.327 403.237 109.515C388.135 92.7035 361.549 85.4667 315.253 115.198C268.957 144.93 252.235 71.9916 216.355 72.2056C180.475 72.4196 159.54 115.612 147.364 131.893C135.189 148.174 109.249 230.128 107.854 279.347C106.46 328.565 139.88 321.027 157.522 313.78C175.164 306.533 185.679 261.791 200.727 240.293C215.774 218.794 245.663 239.568 252.158 268.42C258.653 297.273 258.666 322.807 276.623 332.815C294.58 342.823 317.339 347.565 349.419 332.099Z" stroke="#807F7F" stroke-width="0.5"/>
<path d="M345.755 330.508C371.419 318.135 379.072 293.005 383.24 280.566C382.962 276.651 382.598 277.186 382.432 275.605C382.224 273.629 377.654 268.677 380.064 260.511C382.473 252.345 380.814 251.11 396.007 234.846C411.2 218.583 423.13 197.718 425.102 171.925C427.075 146.133 414.675 124.735 399.573 107.924C384.471 91.1117 357.884 83.8749 311.589 113.607C265.293 143.338 248.571 70.3998 212.691 70.6138C176.81 70.8278 155.876 114.02 143.7 130.301C131.524 146.582 105.584 228.536 104.19 277.755C102.795 326.974 136.216 319.435 153.858 312.188C171.5 304.941 182.014 260.199 197.062 238.701C212.11 217.202 241.998 237.976 248.493 266.828C254.989 295.681 255.002 321.215 272.959 331.223C290.916 341.231 313.675 345.974 345.755 330.508Z" stroke="#807F7F" stroke-width="0.5"/>
<path d="M342.093 328.916C367.757 316.543 375.41 291.414 379.578 278.975C379.3 275.059 378.936 275.594 378.77 274.014C378.562 272.037 373.992 267.085 376.401 258.919C378.811 250.753 377.151 249.518 392.344 233.255C407.538 216.992 419.467 196.126 421.44 170.334C423.413 144.541 411.013 123.144 395.911 106.332C380.809 89.5202 354.222 82.2833 307.926 112.015C261.631 141.747 244.909 68.8083 209.029 69.0223C173.148 69.2363 152.214 112.429 140.038 128.709C127.862 144.99 101.922 226.945 100.528 276.163C99.1332 325.382 132.554 317.844 150.196 310.597C167.838 303.349 178.352 258.608 193.4 237.109C208.448 215.611 238.336 236.385 244.831 265.237C251.326 294.089 251.34 319.623 269.297 329.631C287.254 339.64 310.013 344.382 342.093 328.916Z" stroke="#807F7F" stroke-width="0.5"/>
<path d="M338.429 327.324C364.093 314.951 371.746 289.822 375.914 277.383C375.636 273.467 375.272 274.002 375.106 272.421C374.898 270.445 370.328 265.493 372.738 257.327C375.147 249.161 373.488 247.926 388.681 231.663C403.874 215.4 415.804 194.534 417.776 168.742C419.749 142.949 407.349 121.552 392.247 104.74C377.145 87.9282 350.558 80.6913 304.263 110.423C257.967 140.155 241.245 67.2163 205.365 67.4303C169.484 67.6442 148.55 110.837 136.374 127.117C124.198 143.398 98.2584 225.352 96.8639 274.571C95.4694 323.79 128.89 316.252 146.532 309.005C164.174 301.757 174.688 257.016 189.736 235.517C204.784 214.019 234.673 234.792 241.168 263.645C247.663 292.497 247.676 318.031 265.633 328.039C283.59 338.048 306.349 342.79 338.429 327.324Z" stroke="#807F7F" stroke-width="0.5"/>
<path d="M334.765 325.732C360.429 313.359 368.081 288.23 372.25 275.791C371.972 271.876 371.608 272.411 371.442 270.83C371.234 268.854 366.664 263.901 369.073 255.735C371.482 247.569 369.823 246.334 385.016 230.071C400.209 213.808 412.139 192.943 414.112 167.15C416.084 141.357 403.685 119.96 388.583 103.148C373.481 86.3364 346.894 79.0995 300.598 108.831C254.302 138.563 237.581 65.6245 201.7 65.8385C165.82 66.0524 144.885 109.245 132.71 125.526C120.534 141.806 94.5941 223.761 93.1996 272.979C91.8051 322.198 125.225 314.66 142.868 307.413C160.51 300.165 171.024 255.424 186.072 233.925C201.12 212.427 231.008 233.201 237.503 262.053C243.998 290.905 244.012 316.44 261.969 326.448C279.926 336.456 302.685 341.198 334.765 325.732Z" stroke="#807F7F" stroke-width="0.5"/>
<path d="M331.101 324.14C356.765 311.768 364.417 286.638 368.586 274.199C368.308 270.284 367.943 270.819 367.777 269.238C367.57 267.262 363 262.309 365.409 254.144C367.818 245.978 366.159 244.742 381.352 228.479C396.545 212.216 408.475 191.351 410.448 165.558C412.42 139.765 400.021 118.368 384.919 101.556C369.816 84.7446 343.23 77.5077 296.934 107.239C250.638 136.971 233.917 64.0327 198.036 64.2467C162.156 64.4606 141.221 107.653 129.045 123.934C116.87 140.215 90.9298 222.169 89.5353 271.388C88.1408 320.606 121.561 313.068 139.203 305.821C156.845 298.574 167.36 253.832 182.408 232.334C197.456 210.835 227.344 231.609 233.839 260.461C240.334 289.314 240.347 314.848 258.304 324.856C276.262 334.864 299.02 339.606 331.101 324.14Z" stroke="#807F7F" stroke-width="0.5"/>
<path d="M327.437 322.549C353.101 310.176 360.753 285.046 364.922 272.607C364.644 268.692 364.28 269.227 364.113 267.646C363.906 265.67 359.336 260.718 361.745 252.552C364.154 244.386 362.495 243.151 377.688 226.887C392.881 210.624 404.811 189.759 406.784 163.966C408.756 138.174 396.357 116.777 381.255 99.9646C366.153 83.1528 339.566 75.9159 293.27 105.648C246.974 135.379 230.253 62.4409 194.372 62.6549C158.492 62.8688 137.557 106.061 125.382 122.342C113.206 138.623 87.266 220.577 85.8715 269.796C84.477 319.015 117.897 311.476 135.539 304.229C153.182 296.982 163.696 252.24 178.744 230.742C193.792 209.243 223.68 230.017 230.175 258.869C236.67 287.722 236.683 313.256 254.641 323.264C272.598 333.272 295.356 338.015 327.437 322.549Z" stroke="#807F7F" stroke-width="0.5"/>
<path d="M323.775 320.957C349.439 308.584 357.091 283.455 361.26 271.015C360.982 267.1 360.617 267.635 360.451 266.054C360.244 264.078 355.674 259.126 358.083 250.96C360.492 242.794 358.833 241.559 374.026 225.296C389.219 209.033 401.149 188.167 403.122 162.375C405.094 136.582 392.695 115.185 377.593 98.3728C362.491 81.561 335.904 74.3241 289.608 104.056C243.312 133.788 226.591 60.8491 190.71 61.0631C154.83 61.277 133.895 104.469 121.72 120.75C109.544 137.031 83.6039 218.985 82.2094 268.204C80.8148 317.423 114.235 309.885 131.877 302.637C149.52 295.39 160.034 250.648 175.082 229.15C190.13 207.651 220.018 228.425 226.513 257.278C233.008 286.13 233.021 311.664 250.978 321.672C268.936 331.68 291.694 336.423 323.775 320.957Z" stroke="#807F7F" stroke-width="0.5"/>
<path d="M320.11 319.365C345.774 306.992 353.427 281.863 357.595 269.424C357.318 265.508 356.953 266.043 356.787 264.463C356.579 262.486 352.01 257.534 354.419 249.368C356.828 241.202 355.169 239.967 370.362 223.704C385.555 207.441 397.485 186.575 399.457 160.783C401.43 134.99 389.031 113.593 373.928 96.781C358.826 79.9692 332.24 72.7323 285.944 102.464C239.648 132.196 222.926 59.2573 187.046 59.4713C151.165 59.6852 130.231 102.878 118.055 119.158C105.88 135.439 79.9396 217.393 78.5451 266.612C77.1505 315.831 110.571 308.293 128.213 301.046C145.855 293.798 156.37 249.057 171.417 227.558C186.465 206.06 216.354 226.833 222.849 255.686C229.344 284.538 229.357 310.072 247.314 320.08C265.271 330.089 288.03 334.831 320.11 319.365Z" stroke="#807F7F" stroke-width="0.5"/>
<path d="M316.446 317.773C342.111 305.4 349.763 280.271 353.931 267.832C353.654 263.917 353.289 264.452 353.123 262.871C352.916 260.895 348.346 255.942 350.755 247.776C353.164 239.61 351.505 238.375 366.698 222.112C381.891 205.849 393.821 184.984 395.794 159.191C397.766 133.398 385.367 112.001 370.265 95.1892C355.162 78.3774 328.576 71.1405 282.28 100.872C235.984 130.604 219.263 57.6655 183.382 57.8795C147.502 58.0934 126.567 101.286 114.391 117.567C102.216 133.847 76.2758 215.802 74.8812 265.02C73.4867 314.239 106.907 306.701 124.549 299.454C142.191 292.207 152.706 247.465 167.754 225.966C182.802 204.468 212.69 225.242 219.185 254.094C225.68 282.946 225.693 308.481 243.65 318.489C261.608 328.497 284.366 333.239 316.446 317.773Z" stroke="#807F7F" stroke-width="0.5"/>
<path d="M312.784 316.181C338.449 303.809 346.101 278.679 350.269 266.24C349.992 262.325 349.627 262.86 349.461 261.279C349.254 259.303 344.684 254.35 347.093 246.185C349.502 238.019 347.843 236.783 363.036 220.52C378.229 204.257 390.159 183.392 392.131 157.599C394.104 131.806 381.705 110.409 366.602 93.5974C351.5 76.7856 324.914 69.5487 278.618 99.2804C232.322 129.012 215.6 56.0737 179.72 56.2877C143.84 56.5017 122.905 99.6939 110.729 115.975C98.5536 132.256 72.6137 214.21 71.2191 263.429C69.8246 312.647 103.245 305.109 120.887 297.862C138.529 290.615 149.044 245.873 164.092 224.375C179.139 202.876 209.028 223.65 215.523 252.502C222.018 281.355 222.031 306.889 239.988 316.897C257.945 326.905 280.704 331.648 312.784 316.181Z" stroke="#807F7F" stroke-width="0.5"/>
<path d="M309.118 314.589C334.783 302.217 342.435 277.087 346.603 264.648C346.326 260.733 345.961 261.268 345.795 259.687C345.587 257.711 341.018 252.758 343.427 244.593C345.836 236.427 344.177 235.191 359.37 218.928C374.563 202.665 386.493 181.8 388.465 156.007C390.438 130.214 378.039 108.817 362.936 92.0054C347.834 75.1935 321.248 67.9567 274.952 97.6884C228.656 127.42 211.934 54.4816 176.054 54.6956C140.173 54.9096 119.239 98.1019 107.063 114.383C94.8876 130.664 68.9476 212.618 67.5531 261.837C66.1586 311.055 99.5789 303.517 117.221 296.27C134.863 289.023 145.378 244.281 160.426 222.782C175.473 201.284 205.362 222.058 211.857 250.91C218.352 279.763 218.365 305.297 236.322 315.305C254.279 325.313 277.038 330.055 309.118 314.589Z" stroke="#807F7F" stroke-width="0.5"/>
<path d="M305.454 312.998C331.118 300.625 338.771 275.495 342.939 263.056C342.662 259.141 342.297 259.676 342.131 258.095C341.923 256.119 337.354 251.167 339.763 243.001C342.172 234.835 340.513 233.599 355.706 217.336C370.899 201.073 382.829 180.208 384.801 154.415C386.774 128.623 374.375 107.225 359.272 90.4136C344.17 73.6017 317.584 66.3649 271.288 96.0966C224.992 125.828 208.27 52.8898 172.39 53.1038C136.509 53.3178 115.575 96.5101 103.399 112.791C91.2235 129.072 65.2836 211.026 63.8891 260.245C62.4945 309.464 95.9149 301.925 113.557 294.678C131.199 287.431 141.714 242.689 156.761 221.191C171.809 199.692 201.698 220.466 208.193 249.318C214.688 278.171 214.701 303.705 232.658 313.713C250.615 323.721 273.374 328.464 305.454 312.998Z" stroke="#807F7F" stroke-width="0.5"/>
<path d="M301.792 311.406C327.456 299.033 335.109 273.904 339.277 261.464C338.999 257.549 338.635 258.084 338.469 256.503C338.261 254.527 333.691 249.575 336.101 241.409C338.51 233.243 336.851 232.008 352.044 215.745C367.237 199.482 379.167 178.616 381.139 152.823C383.112 127.031 370.712 105.634 355.61 88.8218C340.508 72.0099 313.921 64.7731 267.626 94.5048C221.33 124.237 204.608 51.298 168.728 51.512C132.847 51.726 111.913 94.9183 99.7371 111.199C87.5614 127.48 61.6215 209.434 60.2269 258.653C58.8324 307.872 92.2528 300.334 109.895 293.086C127.537 285.839 138.051 241.097 153.099 219.599C168.147 198.1 198.036 218.874 204.531 247.727C211.026 276.579 211.039 302.113 228.996 312.121C246.953 322.129 269.712 326.872 301.792 311.406Z" stroke="#807F7F" stroke-width="0.5"/>
<path d="M298.128 309.814C323.792 297.441 331.445 272.312 335.613 259.873C335.335 255.957 334.971 256.492 334.805 254.911C334.597 252.935 330.027 247.983 332.437 239.817C334.846 231.651 333.187 230.416 348.38 214.153C363.573 197.89 375.503 177.024 377.475 151.232C379.448 125.439 367.048 104.042 351.946 87.23C336.844 70.4181 310.257 63.1813 263.962 92.913C217.666 122.645 200.944 49.7062 165.064 49.9202C129.183 50.1342 108.249 93.3265 96.0731 109.607C83.8973 125.888 57.9574 207.842 56.5629 257.061C55.1684 306.28 88.5887 298.742 106.231 291.495C123.873 284.247 134.387 239.506 149.435 218.007C164.483 196.509 194.371 217.282 200.867 246.135C207.362 274.987 207.375 300.521 225.332 310.529C243.289 320.537 266.048 325.28 298.128 309.814Z" stroke="#807F7F" stroke-width="0.5"/>
<path d="M294.464 308.222C320.128 295.849 327.781 270.72 331.949 258.281C331.671 254.366 331.307 254.901 331.141 253.32C330.933 251.344 326.363 246.391 328.773 238.225C331.182 230.059 329.522 228.824 344.716 212.561C359.909 196.298 371.839 175.433 373.811 149.64C375.784 123.847 363.384 102.45 348.282 85.6382C333.18 68.8263 306.593 61.5895 260.297 91.3212C214.002 121.053 197.28 48.1144 161.4 48.3284C125.519 48.5424 104.585 91.7347 92.409 108.016C80.2333 124.296 54.2933 206.251 52.8988 255.469C51.5043 304.688 84.9246 297.15 102.567 289.903C120.209 282.655 130.723 237.914 145.771 216.415C160.819 194.917 190.707 215.691 197.202 244.543C203.698 273.395 203.711 298.93 221.668 308.938C239.625 318.946 262.384 323.688 294.464 308.222Z" stroke="#807F7F" stroke-width="0.5"/>
<path d="M290.802 306.63C316.466 294.258 324.119 269.128 328.287 256.689C328.009 252.774 327.645 253.309 327.479 251.728C327.271 249.752 322.701 244.799 325.11 236.634C327.52 228.468 325.86 227.232 341.053 210.969C356.247 194.706 368.176 173.841 370.149 148.048C372.122 122.255 359.722 100.858 344.62 84.0464C329.518 67.2346 302.931 59.9977 256.635 89.7294C210.34 119.461 193.618 46.5226 157.738 46.7367C121.857 46.9506 100.923 90.1429 88.7469 106.424C76.5712 122.705 50.6312 204.659 49.2367 253.878C47.8422 303.096 81.2625 295.558 98.9047 288.311C116.547 281.064 127.061 236.322 142.109 214.824C157.157 193.325 187.045 214.099 193.54 242.951C200.035 271.804 200.049 297.338 218.006 307.346C235.963 317.354 258.722 322.096 290.802 306.63Z" stroke="#807F7F" stroke-width="0.5"/>
<path d="M287.138 305.039C312.802 292.666 320.454 267.536 324.623 255.097C324.345 251.182 323.981 251.717 323.815 250.136C323.607 248.16 319.037 243.208 321.446 235.042C323.856 226.876 322.196 225.641 337.389 209.377C352.582 193.114 364.512 172.249 366.485 146.456C368.457 120.664 356.058 99.2665 340.956 82.4546C325.854 65.6428 299.267 58.4059 252.971 88.1376C206.675 117.869 189.954 44.9309 154.073 45.1449C118.193 45.3588 97.2585 88.5511 85.0828 104.832C72.9071 121.113 46.9672 203.067 45.5726 252.286C44.1781 301.505 77.5985 293.966 95.2406 286.719C112.883 279.472 123.397 234.73 138.445 213.232C153.493 191.733 183.381 212.507 189.876 241.359C196.371 270.212 196.385 295.746 214.342 305.754C232.299 315.762 255.058 320.505 287.138 305.039Z" stroke="#807F7F" stroke-width="0.5"/>
<path d="M283.472 303.447C309.136 291.074 316.788 265.945 320.957 253.505C320.679 249.59 320.315 250.125 320.149 248.544C319.941 246.568 315.371 241.616 317.78 233.45C320.19 225.284 318.53 224.049 333.723 207.786C348.916 191.523 360.846 170.657 362.819 144.865C364.791 119.072 352.392 97.6747 337.29 80.8628C322.188 64.051 295.601 56.8141 249.305 86.5458C203.009 116.278 186.288 43.3391 150.407 43.5531C114.527 43.767 93.5925 86.9593 81.4168 103.24C69.2411 119.521 43.3012 201.475 41.9066 250.694C40.5121 299.913 73.9324 292.375 91.5746 285.127C109.217 277.88 119.731 233.138 134.779 211.64C149.827 190.141 179.715 210.915 186.21 239.768C192.705 268.62 192.719 294.154 210.676 304.162C228.633 314.17 251.392 318.913 283.472 303.447Z" stroke="#807F7F" stroke-width="0.5"/>
<path d="M279.81 301.855C305.474 289.482 313.126 264.353 317.295 251.914C317.017 247.998 316.653 248.533 316.487 246.953C316.279 244.976 311.709 240.024 314.118 231.858C316.527 223.692 314.868 222.457 330.061 206.194C345.254 189.931 357.184 169.065 359.157 143.273C361.129 117.48 348.73 96.0829 333.628 79.271C318.526 62.4592 291.939 55.2223 245.643 84.954C199.347 114.686 182.626 41.7473 146.745 41.9613C110.865 42.1752 89.9304 85.3675 77.7547 101.648C65.579 117.929 39.6391 199.883 38.2445 249.102C36.85 298.321 70.2704 290.783 87.9125 283.536C105.555 276.288 116.069 231.547 131.117 210.048C146.165 188.55 176.053 209.323 182.548 238.176C189.043 267.028 189.056 292.562 207.014 302.57C224.971 312.579 247.73 317.321 279.81 301.855Z" stroke="#807F7F" stroke-width="0.5"/>
<path d="M276.146 300.263C301.81 287.89 309.463 262.761 313.631 250.322C313.353 246.406 312.989 246.941 312.823 245.36C312.615 243.384 308.045 238.432 310.454 230.266C312.864 222.1 311.204 220.865 326.397 204.602C341.591 188.339 353.52 167.473 355.493 141.681C357.466 115.888 345.066 94.4909 329.964 77.679C314.862 60.8671 288.275 53.6303 241.979 83.362C195.684 113.094 178.962 40.1552 143.082 40.3692C107.201 40.5832 86.2666 83.7755 74.0909 100.056C61.9152 116.337 35.9752 198.291 34.5807 247.51C33.1862 296.729 66.6065 289.191 84.2487 281.944C101.891 274.696 112.405 229.955 127.453 208.456C142.501 186.958 172.389 207.731 178.884 236.584C185.379 265.436 185.393 290.97 203.35 300.978C221.307 310.986 244.066 315.729 276.146 300.263Z" stroke="#807F7F" stroke-width="0.5"/>
<path d="M272.482 298.671C298.146 286.299 305.798 261.169 309.967 248.73C309.689 244.815 309.324 245.35 309.158 243.769C308.951 241.793 304.381 236.84 306.79 228.675C309.199 220.509 307.54 219.273 322.733 203.01C337.926 186.747 349.856 165.882 351.829 140.089C353.801 114.296 341.402 92.8993 326.3 76.0874C311.198 59.2756 284.611 52.0387 238.315 81.7704C192.019 111.502 175.298 38.5637 139.417 38.7777C103.537 38.9916 82.6023 82.1839 70.4266 98.4647C58.2509 114.746 32.3109 196.7 30.9164 245.919C29.5219 295.137 62.9422 287.599 80.5844 280.352C98.2265 273.105 108.741 228.363 123.789 206.865C138.837 185.366 168.725 206.14 175.22 234.992C181.715 263.845 181.728 289.379 199.686 299.387C217.643 309.395 240.401 314.137 272.482 298.671Z" stroke="#807F7F" stroke-width="0.5"/>
<path d="M268.82 297.08C294.484 284.707 302.136 259.577 306.305 247.138C306.027 243.223 305.662 243.758 305.496 242.177C305.289 240.201 300.719 235.249 303.128 227.083C305.537 218.917 303.878 217.682 319.071 201.418C334.264 185.155 346.194 164.29 348.167 138.497C350.139 112.705 337.74 91.3075 322.638 74.4956C307.535 57.6838 280.949 50.4469 234.653 80.1786C188.357 109.91 171.636 36.9719 135.755 37.1859C99.8747 37.3998 78.9401 80.5921 66.7645 96.8729C54.5887 113.154 28.6488 195.108 27.2543 244.327C25.8598 293.546 59.2801 286.007 76.9223 278.76C94.5644 271.513 105.079 226.771 120.127 205.273C135.175 183.774 165.063 204.548 171.558 233.4C178.053 262.253 178.066 287.787 196.023 297.795C213.981 307.803 236.739 312.546 268.82 297.08Z" stroke="#807F7F" stroke-width="0.5"/>
<path d="M265.156 295.488C290.82 283.115 298.472 257.985 302.641 245.546C302.363 241.631 301.999 242.166 301.832 240.585C301.625 238.609 297.055 233.657 299.464 225.491C301.873 217.325 300.214 216.089 315.407 199.826C330.6 183.563 342.53 162.698 344.503 136.905C346.475 111.113 334.076 89.7155 318.974 72.9036C303.872 56.0917 277.285 48.8549 230.989 78.5866C184.693 108.318 167.972 35.3798 132.091 35.5938C96.2109 35.8078 75.2763 79.0001 63.1006 95.2809C50.9249 111.562 24.985 193.516 23.5905 242.735C22.1959 291.954 55.6163 284.415 73.2584 277.168C90.9006 269.921 101.415 225.179 116.463 203.681C131.511 182.182 161.399 202.956 167.894 231.808C174.389 260.661 174.402 286.195 192.36 296.203C210.317 306.211 233.075 310.954 265.156 295.488Z" stroke="#807F7F" stroke-width="0.5"/>
<path d="M261.491 293.896C287.156 281.523 294.808 256.394 298.976 243.954C298.699 240.039 298.334 240.574 298.168 238.993C297.961 237.017 293.391 232.065 295.8 223.899C298.209 215.733 296.55 214.498 311.743 198.235C326.936 181.972 338.866 161.106 340.838 135.313C342.811 109.521 330.412 88.1237 315.31 71.3118C300.207 54.4999 273.621 47.2631 227.325 76.9948C181.029 106.726 164.307 33.788 128.427 34.002C92.5465 34.216 71.612 77.4083 59.4363 93.6891C47.2606 109.97 21.3207 191.924 19.9262 241.143C18.5316 290.362 51.952 282.824 69.5941 275.576C87.2363 268.329 97.7506 223.587 112.799 202.089C127.847 180.59 157.735 201.364 164.23 230.217C170.725 259.069 170.738 284.603 188.695 294.611C206.652 304.619 229.411 309.362 261.491 293.896Z" stroke="#807F7F" stroke-width="0.5"/>
</svg>
