<svg width="807" height="806" viewBox="0 0 807 806" fill="none" xmlns="http://www.w3.org/2000/svg">
<g opacity="0.5">
<path d="M95.2541 549.657C146.245 612.207 285.468 728.863 434.426 695.085C620.624 652.863 676.191 551.27 697.894 496.746C715.257 453.127 736.217 371.335 744.526 335.891" stroke="#807F7F"/>
<path d="M93.3576 541.779C144.349 604.329 283.571 720.985 432.53 687.207C618.728 644.984 674.295 543.391 695.998 488.868C713.36 445.249 734.32 363.457 742.63 328.013" stroke="#807F7F"/>
<path d="M91.4611 533.9C142.452 596.451 281.675 713.106 430.633 679.328C616.831 637.106 672.398 535.513 694.101 480.989C711.464 437.37 732.424 355.578 740.733 320.134" stroke="#807F7F"/>
<path d="M89.5667 526.022C140.558 588.572 279.78 705.228 428.739 671.45C614.937 629.227 670.504 527.634 692.207 473.111C709.569 429.492 730.529 347.7 738.839 312.256" stroke="#807F7F"/>
<path d="M87.672 518.144C138.663 580.694 277.886 697.35 426.844 663.572C613.042 621.349 668.609 519.756 690.312 465.233C707.675 421.614 728.635 339.822 736.944 304.378" stroke="#807F7F"/>
<path d="M85.7756 510.266C136.767 572.816 275.989 689.472 424.948 655.694C611.146 613.471 666.713 511.878 688.416 457.354C705.778 413.736 726.738 331.943 735.048 296.5" stroke="#807F7F"/>
<path d="M83.881 502.388C134.872 564.938 274.095 681.594 423.053 647.816C609.251 605.593 664.818 504 686.521 449.477C703.884 405.858 724.844 324.065 733.153 288.622" stroke="#807F7F"/>
<path d="M81.9865 494.509C132.978 557.059 272.2 673.715 421.159 639.937C607.357 597.715 662.924 496.122 684.627 441.598C701.989 397.979 722.949 316.187 731.259 280.743" stroke="#807F7F"/>
<path d="M80.09 486.631C131.081 549.181 270.304 665.837 419.262 632.059C605.46 589.836 661.027 488.243 682.73 433.72C700.092 390.101 721.053 308.309 729.362 272.865" stroke="#807F7F"/>
<path d="M78.1935 478.753C129.185 541.303 268.407 657.958 417.366 624.18C603.564 581.958 659.131 480.365 680.834 425.841C698.196 382.222 719.156 300.43 727.466 264.987" stroke="#807F7F"/>
<path d="M76.2991 470.875C127.29 533.425 266.513 650.08 415.471 616.302C601.669 574.08 657.236 472.487 678.939 417.963C696.302 374.344 717.262 292.552 725.571 257.109" stroke="#807F7F"/>
<path d="M74.4045 462.996C125.396 525.546 264.618 642.202 413.576 608.424C599.775 566.202 655.342 464.608 677.045 410.085C694.407 366.466 715.367 284.674 723.677 249.23" stroke="#807F7F"/>
<path d="M72.508 455.118C123.499 517.668 262.721 634.324 411.68 600.546C597.878 558.323 653.445 456.73 675.148 402.206C692.51 358.588 713.471 276.795 721.78 241.352" stroke="#807F7F"/>
<path d="M70.6134 447.24C121.605 509.79 260.827 626.446 409.785 592.668C595.984 550.445 651.551 448.852 673.254 394.329C690.616 350.71 711.576 268.918 719.886 233.474" stroke="#807F7F"/>
<path d="M68.7189 439.361C119.71 501.912 258.932 618.567 407.891 584.789C594.089 542.567 649.656 440.974 671.359 386.45C688.721 342.831 709.681 261.039 717.991 225.595" stroke="#807F7F"/>
<path d="M66.8224 431.484C117.814 494.034 257.036 610.689 405.994 576.911C592.193 534.689 647.76 433.096 669.463 378.572C686.825 334.953 707.785 253.161 716.095 217.717" stroke="#807F7F"/>
<path d="M64.9259 423.605C115.917 486.155 255.139 602.81 404.098 569.032C590.296 526.81 645.863 425.217 667.566 370.693C684.928 327.074 705.888 245.282 714.198 209.839" stroke="#807F7F"/>
<path d="M63.0314 415.727C114.023 478.277 253.245 594.933 402.203 561.154C588.402 518.932 643.969 417.339 665.672 362.815C683.034 319.197 703.994 237.404 712.304 201.961" stroke="#807F7F"/>
</g>
</svg>
